<?xml version="1.0" standalone="no"?>
<!DOCTYPE svg PUBLIC "-//W3C//DTD SVG 20010904//EN"
 "http://www.w3.org/TR/2001/REC-SVG-20010904/DTD/svg10.dtd">
<svg version="1.0" xmlns="http://www.w3.org/2000/svg"
 width="392.000000pt" height="362.000000pt" viewBox="0 0 392.000000 362.000000"
 preserveAspectRatio="xMidYMid meet">
<metadata>
Created by potrace 1.16, written by Peter Selinger 2001-2019
</metadata>
<g transform="translate(0.000000,362.000000) scale(0.100000,-0.100000)"
fill="#000000" stroke="none">
<path d="M1733 3154 c-6 -16 2 -130 15 -204 8 -50 3 -49 120 -35 50 6 62 11
60 24 -3 13 -17 16 -68 16 l-65 0 -8 95 c-4 52 -9 101 -12 108 -6 17 -34 15
-42 -4z"/>
<path d="M2150 3153 c-43 -17 -80 -78 -80 -134 0 -37 6 -53 33 -83 81 -94 227
-32 227 97 0 40 -35 96 -70 114 -26 13 -84 16 -110 6z m105 -69 c74 -79 -36
-194 -112 -118 -21 21 -25 32 -20 65 10 74 85 104 132 53z"/>
<path d="M1412 3077 c-13 -15 -19 -58 -27 -184 l-6 -93 25 0 c21 0 26 6 32 36
5 28 14 39 38 49 64 26 74 27 95 6 25 -25 47 -27 55 -4 5 13 -14 36 -71 90
-109 102 -128 116 -141 100z m68 -107 c25 -22 20 -36 -15 -42 -16 -2 -21 3
-23 30 -4 37 6 40 38 12z"/>
<path d="M2475 2949 c-53 -104 -56 -112 -40 -128 15 -15 17 -15 31 4 9 11 19
26 23 34 7 11 13 11 37 0 25 -12 30 -21 34 -64 4 -42 8 -50 25 -50 17 0 20 8
23 48 2 26 7 47 11 47 5 0 20 12 35 26 33 34 36 90 6 122 -18 19 -109 72 -124
72 -2 0 -30 -50 -61 -111z m138 13 c20 -18 22 -43 5 -60 -16 -16 -44 -15 -73
4 -23 15 -24 16 -8 50 18 37 39 38 76 6z"/>
<path d="M1161 2956 c-7 -8 -8 -23 -2 -42 16 -53 32 -156 26 -162 -3 -4 -21 2
-38 12 -121 69 -148 81 -157 66 -18 -27 -14 -30 147 -114 84 -44 109 -44 106
-1 -2 33 -28 183 -39 228 -7 29 -25 35 -43 13z"/>
<path d="M2793 2789 c-32 -40 -66 -82 -76 -96 -20 -25 -17 -53 6 -53 18 0 167
176 167 198 0 8 -22 22 -35 22 -2 0 -30 -32 -62 -71z"/>
<path d="M723 2400 c-23 -10 -43 -39 -43 -65 0 -23 45 -65 70 -65 27 0 70 43
70 70 0 22 -45 70 -64 69 -6 0 -21 -4 -33 -9z"/>
<path d="M3065 2385 c-30 -29 -32 -64 -5 -93 26 -27 64 -28 90 -2 29 29 26 74
-6 99 -34 27 -50 26 -79 -4z"/>
<path d="M2260 2304 c-91 -24 -175 -43 -187 -44 -12 0 -39 11 -59 25 -62 42
-142 29 -181 -28 -13 -18 -23 -41 -23 -50 0 -10 -13 -19 -37 -26 -21 -5 -49
-12 -63 -15 -318 -81 -331 -87 -306 -121 13 -18 15 -18 66 -2 29 9 61 17 71
17 11 0 27 4 37 10 9 5 40 14 67 20 28 6 76 17 109 25 l59 13 34 -34 c18 -19
40 -34 48 -34 13 0 15 -60 15 -440 l0 -439 -77 -3 c-76 -3 -78 -4 -78 -28 l0
-25 183 -3 c156 -2 183 0 188 13 12 31 -15 45 -87 45 l-69 0 0 440 c0 355 3
440 13 440 22 0 74 63 82 98 8 40 15 43 140 71 55 13 107 26 115 31 9 4 38 11
65 14 28 4 58 13 68 21 24 17 18 49 -8 52 -11 0 -94 -18 -185 -43z m-291 -49
c33 -16 41 -33 41 -79 0 -46 -27 -68 -81 -64 -36 3 -45 8 -61 37 -17 30 -18
37 -5 63 13 26 47 54 70 57 4 1 21 -6 36 -14z"/>
<path d="M2404 2176 c-3 -8 6 -25 20 -39 14 -14 28 -37 32 -51 8 -35 44 -36
44 -2 0 34 -18 77 -38 92 -23 18 -51 17 -58 0z"/>
<path d="M2326 2035 c-21 -7 -51 -26 -67 -41 -30 -29 -59 -100 -59 -146 0 -32
30 -150 41 -158 3 -3 9 -14 13 -25 8 -26 65 -89 93 -104 12 -6 72 -11 142 -11
119 0 121 0 154 29 40 36 85 115 103 185 34 128 -2 223 -102 268 -44 19 -53
20 -110 9 -45 -9 -72 -10 -100 -2 -49 14 -60 13 -108 -4z m159 -48 c127 8 141
7 166 -12 70 -53 79 -144 25 -260 -50 -105 -102 -141 -169 -116 -16 6 -37 6
-60 -1 -52 -16 -92 4 -132 66 -60 96 -78 182 -51 247 27 66 75 91 151 81 28
-3 59 -6 70 -5z"/>
<path d="M2577 1943 c-12 -11 -8 -40 8 -53 9 -8 15 -29 15 -55 0 -30 5 -45 16
-49 26 -10 34 3 34 54 0 38 -6 55 -26 79 -26 32 -35 36 -47 24z"/>
<path d="M1340 1904 c-137 -43 -202 -114 -204 -222 l-1 -57 315 0 315 0 -3 59
c-1 38 -10 73 -24 98 -26 46 -106 103 -168 119 -69 18 -179 20 -230 3z m208
-58 c83 -22 141 -74 156 -138 l6 -28 -261 0 -261 0 6 33 c4 17 11 34 16 35 6
2 10 9 10 15 1 19 77 68 128 82 64 17 136 18 200 1z"/>
<path d="M3172 1832 c-9 -6 -12 -34 -10 -103 l3 -94 126 -3 c147 -3 139 -11
139 121 0 75 -1 77 -25 77 -23 0 -24 -3 -27 -72 -3 -71 -4 -73 -30 -76 -28 -3
-28 -2 -28 52 0 53 -1 56 -24 56 -23 0 -25 -4 -28 -52 -3 -49 -5 -53 -28 -53
-24 0 -25 3 -30 74 -5 74 -13 88 -38 73z"/>
<path d="M555 1821 c-91 -6 -100 -8 -100 -26 0 -18 8 -21 75 -25 41 -3 74 -9
73 -13 -1 -5 -19 -22 -40 -39 -21 -16 -53 -41 -70 -56 -21 -16 -33 -35 -33
-49 l0 -24 128 3 c123 3 127 4 130 26 3 21 1 22 -77 22 -45 0 -81 4 -81 9 0 5
36 36 80 70 44 34 80 68 80 75 0 19 -22 36 -44 34 -12 -1 -66 -4 -121 -7z"/>
<path d="M1130 1535 c-7 -8 -10 -22 -6 -30 4 -13 36 -15 205 -15 l200 0 19
-25 c24 -31 46 -32 66 -4 19 28 42 19 49 -21 7 -32 25 -37 37 -9 21 45 29 54
49 57 27 4 37 27 21 47 -19 22 -621 22 -640 0z"/>
<path d="M2157 1458 c-2 -7 0 -21 5 -30 8 -17 33 -18 317 -18 261 0 310 2 321
15 7 8 10 22 6 30 -5 13 -49 15 -325 15 -246 0 -320 -3 -324 -12z"/>
<path d="M695 1428 c-16 -5 -44 -16 -62 -24 -17 -8 -36 -14 -42 -14 -5 0 -21
-15 -35 -33 -52 -68 -25 -154 53 -178 34 -10 49 -8 125 17 67 21 86 32 86 46
0 24 -25 34 -53 20 -12 -6 -46 -18 -75 -28 -48 -17 -56 -17 -80 -3 -20 11 -28
24 -30 50 -4 44 7 54 94 84 75 26 89 37 81 59 -7 18 -19 19 -62 4z"/>
<path d="M1130 1405 c-7 -8 -10 -22 -6 -30 4 -13 34 -15 190 -15 114 0 187 4
191 10 3 6 3 19 0 30 -6 19 -15 20 -184 20 -146 0 -181 -3 -191 -15z"/>
<path d="M3354 1409 c-4 -6 -12 -32 -19 -58 -12 -45 -12 -46 -50 -44 -21 2
-43 7 -49 12 -6 4 -28 12 -50 15 -21 4 -47 13 -58 19 -15 10 -21 9 -28 -3 -22
-35 -15 -40 130 -84 30 -9 68 -18 84 -19 28 -2 30 1 53 73 13 41 21 80 19 87
-7 16 -22 17 -32 2z"/>
<path d="M1124 1265 c-4 -8 -1 -22 6 -30 19 -22 621 -22 640 0 7 8 10 22 6 30
-8 23 -644 23 -652 0z"/>
<path d="M870 1078 c0 -6 12 -27 26 -45 26 -35 26 -35 6 -49 -12 -8 -27 -20
-34 -27 -7 -7 -33 -28 -58 -46 -25 -19 -49 -38 -53 -41 -10 -9 2 -40 16 -40 5
0 42 24 81 53 102 77 94 75 131 32 19 -23 36 -35 43 -31 7 4 12 11 12 15 0 8
-93 135 -117 159 -7 7 -13 18 -13 23 0 5 -9 9 -20 9 -11 0 -20 -5 -20 -12z"/>
<path d="M2967 1074 c-4 -4 -7 -14 -7 -23 1 -25 125 -226 142 -229 23 -5 30
26 12 54 -16 23 -15 27 13 72 27 43 32 47 69 47 35 0 39 3 42 26 3 26 2 26
-95 37 -54 6 -114 14 -133 17 -19 4 -38 3 -43 -1z m143 -73 c0 -5 -8 -19 -18
-31 l-19 -23 -16 24 c-24 34 -21 39 18 39 19 0 35 -4 35 -9z"/>
<path d="M2761 831 c-11 -7 -4 -21 33 -68 25 -33 46 -62 46 -66 0 -10 -48 -9
-54 2 -3 5 -27 12 -52 16 -26 4 -55 12 -65 18 -13 8 -21 8 -33 -2 -21 -18 -20
-33 4 -62 28 -35 31 -38 79 -99 24 -30 51 -55 60 -55 30 0 22 34 -20 87 -51
64 -43 68 72 39 60 -15 86 -18 100 -10 19 10 19 11 -3 42 -52 74 -131 167
-142 167 -6 0 -17 -4 -25 -9z"/>
<path d="M1074 697 c-39 -56 -69 -107 -67 -114 8 -21 39 -15 56 10 14 21 17
21 44 6 25 -13 28 -21 28 -64 0 -37 4 -50 16 -53 17 -3 39 36 39 68 0 12 7 20
16 20 24 0 74 59 74 87 0 38 -27 75 -78 108 -25 17 -48 31 -51 32 -4 2 -38
-43 -77 -100z m133 1 c27 -26 28 -35 6 -60 -20 -23 -42 -22 -70 1 -27 23 -28
29 -7 59 19 28 41 28 71 0z"/>
<path d="M1418 538 c-56 -133 -61 -147 -54 -164 12 -30 38 -9 62 51 14 33 29
69 34 80 36 80 38 91 19 103 -10 7 -21 12 -23 12 -2 0 -19 -37 -38 -82z"/>
<path d="M2333 581 c-42 -27 -53 -49 -53 -114 0 -61 21 -97 70 -122 38 -19 73
-19 113 2 39 20 54 38 67 83 13 46 -2 99 -39 134 -40 39 -112 46 -158 17z
m115 -47 c33 -23 45 -60 32 -99 -29 -88 -150 -60 -150 35 0 69 62 103 118 64z"/>
<path d="M1634 538 c-9 -14 3 -22 49 -33 l42 -10 -3 -60 c-2 -33 -8 -75 -14
-93 -12 -38 -11 -39 22 -44 23 -3 25 1 32 52 3 30 10 73 15 95 l8 40 48 -3
c41 -3 47 -1 47 16 0 17 -12 21 -102 32 -57 7 -111 14 -120 15 -10 2 -21 -1
-24 -7z"/>
<path d="M2043 443 c3 -43 9 -100 14 -128 7 -42 12 -51 32 -53 23 -4 23 -2 17
55 -3 32 -8 91 -12 131 -6 68 -7 72 -31 72 -24 0 -24 0 -20 -77z"/>
<path d="M1722 250 c0 -14 2 -19 5 -12 2 6 2 18 0 25 -3 6 -5 1 -5 -13z"/>
</g>
</svg>
